<svg width="620" height="320" viewBox="0 0 620 320" fill="none" xmlns="http://www.w3.org/2000/svg"><g clip-path="url(#8k8eft42ea)"><rect width="620" height="320" rx="8" fill="url(#zemh8nn48b)"/><path d="M379 321v-49l-88-88v-48" stroke="url(#9esu50xs6c)" stroke-width="8" stroke-linecap="round" stroke-linejoin="bevel"/><path d="M91 76v124l40 40h112l24 24v56" stroke="url(#23x54a549d)" stroke-width="8" stroke-linecap="round" stroke-linejoin="bevel"/><path d="M48.672 333.172a3.999 3.999 0 0 0 0 5.656 3.998 3.998 0 0 0 5.656 0l-5.656-5.656ZM219 280l2.828-2.828L219 276v4Zm16 16h4l-1.172-2.828L235 296Zm-4 24a4 4 0 0 0 8 0h-8Zm-123.5-40v-4l-2.828 1.172L107.5 280Zm108.672 2.828 16 16 5.656-5.656-16-16-5.656 5.656ZM231 296v24h8v-24h-8ZM54.328 338.828l56-56-5.656-5.656-56 56 5.656 5.656ZM107.5 284H219v-8H107.5v8Z" fill="url(#n6rf6d9gge)"/><path d="M331 144h64l56 56v120" stroke="url(#mu4kj6padf)" stroke-width="8" stroke-linecap="round" stroke-linejoin="bevel"/><path d="M347 192h40l56-56V56l23.922-24H555l24 24v136" stroke="url(#nsr9omhpzg)" stroke-width="8" stroke-linecap="round" stroke-linejoin="bevel"/><path d="M0 144h227l16 16v80" stroke="url(#nocpmwe9vh)" stroke-width="8" stroke-linecap="round" stroke-linejoin="bevel"/><path d="M575 232h-60l-16-16V96l-16-16H267L179-8" stroke="url(#ck40xlxw3i)" stroke-width="8" stroke-linecap="round" stroke-linejoin="bevel"/><path d="M-5 32h136l48 48v64" stroke="url(#5t7mdo0wvj)" stroke-width="8" stroke-linecap="round" stroke-linejoin="bevel"/><path d="M379 321v-49l-88-88v-48M91 88v112l40 40h112l24 24v56" stroke="#fff" stroke-linecap="round" stroke-linejoin="bevel" stroke-dasharray="2 4"/><path d="m51.5 336 56-56H219l16 16v24m119.5-128H387l56-56V56l23.922-24H555l24 24v128M0 144h227l16 16v80" stroke="#fff" stroke-linecap="round" stroke-linejoin="bevel" stroke-dasharray="2 4"/><path d="M563 232h-48l-16-16V96l-16-16H267L179-8M-5 32h136l48 48v64" stroke="#fff" stroke-linecap="round" stroke-linejoin="bevel" stroke-dasharray="2 4"/><path d="M339 144h56l56 56v120" stroke="#fff" stroke-linecap="round" stroke-linejoin="bevel" stroke-dasharray="2 4"/><circle cx="179" cy="144" r="3" fill="#fff"/><circle cx="179" cy="80" r="3" fill="#fff"/><circle cx="131" cy="32" r="3" fill="#fff"/><circle cx="227" cy="144" r="3" fill="#fff"/><circle cx="243" cy="160" r="3" fill="#fff"/><circle cx="267" cy="264" r="3" fill="#fff"/><circle cx="235" cy="296" r="3" fill="#fff"/><circle cx="219" cy="280" r="3" fill="#fff"/><circle cx="107" cy="280" r="3" fill="#fff"/><circle cx="415" cy="164" r="3" fill="#fff"/><circle cx="443" cy="136" r="3" fill="#fff"/><circle cx="386" cy="192" r="3" fill="#fff"/><circle cx="267" cy="79" r="3" fill="#fff"/><circle cx="364" cy="80" r="3" fill="#fff"/><circle cx="443" cy="80" r="3" fill="#fff"/><circle cx="443" cy="57" r="3" fill="#fff"/><circle cx="468" cy="32" r="3" fill="#fff"/><circle cx="555" cy="32" r="3" fill="#fff"/><circle cx="579" cy="57" r="3" fill="#fff"/><circle cx="499" cy="96" r="3" fill="#fff"/><circle cx="499" cy="216" r="3" fill="#fff"/><circle cx="515" cy="232" r="3" fill="#fff"/><circle cx="451" cy="200" r="3" fill="#fff"/><circle cx="451" cy="256" r="3" fill="#fff"/><circle cx="451" cy="304" r="3" fill="#fff"/><circle cx="291" cy="144" r="5" fill="#fff" stroke="#E53900" stroke-width="4"/><circle cx="379" cy="272" r="3" fill="#fff"/><circle cx="563" cy="232" r="5" fill="red" stroke="#fff" stroke-width="4"/><circle cx="579" cy="184" r="5" fill="#fff" stroke="#666" stroke-width="4"/><circle cx="355" cy="192" r="5" fill="#fff" stroke="#E53900" stroke-width="4"/><circle cx="339" cy="144" r="5" fill="#fff" stroke="#E53900" stroke-width="4"/><circle cx="91" cy="144" r="3" fill="#fff"/><circle cx="91" cy="200" r="3" fill="#fff"/><circle cx="131" cy="240" r="3" fill="#fff"/><circle cx="243" cy="240" r="5" fill="#fff" stroke="#E53900" stroke-width="4"/><circle cx="91" cy="88" r="5" fill="#676767" stroke="#fff" stroke-width="4"/><path d="m514.163 294.355.931-.931-2.169-2.17 1.265-1.265c1.432-1.431 1.275-3.004.136-4.143-1.136-1.136-2.7-1.296-4.134.138l-2.2 2.2 6.171 6.171Zm-2.028-3.89-2.413-2.414 1.169-1.169c.922-.922 1.799-.798 2.498-.099.699.699.838 1.591-.072 2.501l-1.182 1.181Zm7.384-1.465.9-.901-2.826-2.827c-.606-.605-.575-1.509.063-2.148.187-.187.431-.365.525-.416l-.862-.862a5.21 5.21 0 0 0-.404.362c-.542.542-.699 1.314-.371 1.98l-.048.048-.735-.735-.871.87 4.629 4.629Zm5.133-4.947c1.305-1.305 1.203-3.113-.229-4.544-1.44-1.441-3.248-1.543-4.553-.238-1.304 1.304-1.202 3.112.238 4.553 1.432 1.431 3.24 1.533 4.544.229Zm-.753-.76c-.853.853-1.995.507-2.884-.382-.886-.886-1.241-2.037-.388-2.89.846-.847 1.997-.491 2.883.395.889.889 1.236 2.031.389 2.877Zm5.646-4.139c.844-.844.66-1.69.527-2.148l.076-.076.72.72.88-.879-6.171-6.172-.901.901 2.293 2.293-.054.055c-.449-.124-1.281-.341-2.143.521-1.118 1.118-1.058 2.823.443 4.324 1.498 1.498 3.206 1.585 4.33.461Zm-.569-.967c-.805.804-1.932.515-2.86-.413-.919-.919-1.199-2.019-.386-2.833.787-.786 1.85-.566 2.818.401.973.974 1.205 2.067.428 2.845Zm5.07-7.554c.79.784.579 1.742.072 2.248-.557.558-1.346.54-1.976-.09l-2.836-2.836-.901.901 2.944 2.944c1.148 1.148 2.375 1.115 3.264.226.696-.696.801-1.537.521-2.245l.048-.048.802.802.886-.886-4.629-4.629-.904.904 2.709 2.709Zm6.077-2.051c1.094-1.094 1.145-2.459.344-3.459l-.877.877c.385.614.292 1.298-.223 1.814-.763.762-1.89.617-2.899-.392-.991-.991-1.115-2.115-.362-2.869.573-.572 1.284-.56 1.814-.223l.877-.876c-1.03-.838-2.413-.697-3.465.355-1.305 1.305-1.166 3.131.247 4.544 1.395 1.395 3.2 1.573 4.544.229Zm.304-9.747-.95.949-1.108-1.109-.901.901 1.109 1.109-.678.678.723.723.678-.678 2.733 2.733c.837.844 1.886.609 2.582-.117.283-.29.422-.537.488-.681l-.907-.582c-.048.073-.132.211-.277.356-.292.292-.651.458-1.172-.064l-2.546-2.546.949-.949-.723-.723Zm5.625 3.632.901-.901-4.629-4.629-.901.901 4.629 4.629Zm-4.888-5.798c.31-.31.329-.81.033-1.106-.295-.295-.798-.28-1.109.03-.313.314-.325.814-.03 1.109.296.296.793.281 1.106-.033Zm9.044 1.828c1.304-1.304 1.202-3.112-.229-4.543-1.441-1.441-3.249-1.543-4.553-.239-1.305 1.305-1.203 3.113.238 4.553 1.431 1.432 3.239 1.534 4.544.229Zm-.754-.759c-.852.853-1.994.506-2.883-.383-.886-.885-1.242-2.036-.389-2.889.847-.847 1.998-.491 2.884.394.889.889 1.235 2.031.388 2.878Zm1.976-6.146c-.738-.738-.708-1.612-.081-2.239.612-.612 1.383-.582 2.055.09l2.835 2.836.901-.901-2.944-2.944c-1.145-1.145-2.374-1.115-3.32-.169-.696.696-.829 1.474-.552 2.179l-.057.057-.753-.753-.865.865 4.628 4.628.901-.901-2.748-2.748ZM105.163 83.355l3.728-3.727-.802-.802-2.796 2.796-5.37-5.37-.93.932 6.17 6.171Zm6.76-6.573c1.305-1.305 1.203-3.113-.229-4.544-1.44-1.44-3.248-1.543-4.553-.238-1.304 1.304-1.202 3.112.238 4.553 1.432 1.43 3.24 1.533 4.544.229Zm-.753-.76c-.853.853-1.995.506-2.884-.382-.885-.886-1.241-2.037-.388-2.89.846-.847 1.998-.491 2.883.395.889.889 1.236 2.03.389 2.877Zm5.866-4.353c1.094-1.094 1.145-2.459.344-3.46l-.877.878c.386.614.292 1.298-.223 1.814-.762.762-1.889.617-2.899-.392-.991-.992-1.115-2.115-.361-2.869.572-.572 1.283-.56 1.813-.223l.877-.877c-1.03-.837-2.413-.696-3.465.356-1.305 1.305-1.166 3.13.247 4.544 1.395 1.395 3.2 1.573 4.544.229Zm4.221-4.203c.765-.765.808-1.585.633-2.103l.036-.036.633.633.88-.88-3.074-3.074c-1.347-1.347-2.676-.554-3.411.181-.838.838-1.272 1.947-.729 3.092l1.039-.654c-.195-.461-.174-1.115.431-1.72.582-.582 1.185-.576 1.709-.052l.021.021c.328.328-.015.66-.75 1.588-.775.98-1.444 2.106-.392 3.158.91.91 2.094.726 2.974-.154Zm-.527-.919c-.51.51-1.106.648-1.552.202-.482-.482-.226-1.082.226-1.672.253-.332.868-1.103.868-1.362l.596.596c.549.549.612 1.486-.138 2.236Zm-1.362-9.74-.901.902 6.172 6.17.901-.9-6.172-6.171Z" fill="#fff"/><path d="M259.161 231.73c1.88-1.88 1.802-4.134-.127-6.063-1.919-1.919-4.164-1.989-5.981-.172l-2.061 2.061 6.171 6.172 1.998-1.998Zm-1.88.253-4.544-4.544 1.073-1.073c1.349-1.35 2.853-1.238 4.308.217 1.462 1.462 1.585 2.977.178 4.384l-1.015 1.016Zm7.977-6.163c1.304-1.305 1.202-3.113-.229-4.544-1.441-1.44-3.249-1.543-4.553-.238-1.305 1.305-1.203 3.113.238 4.553 1.431 1.431 3.239 1.534 4.544.229Zm-.754-.759c-.852.853-1.995.506-2.883-.383-.886-.886-1.242-2.037-.389-2.89.847-.846 1.998-.491 2.884.395.888.889 1.235 2.031.388 2.878Zm5.866-4.354c1.094-1.093 1.145-2.458.344-3.459l-.877.877c.386.615.292 1.299-.223 1.814-.762.762-1.889.618-2.899-.392-.991-.991-1.115-2.115-.361-2.868.572-.573 1.283-.561 1.814-.223l.876-.877c-1.03-.838-2.413-.696-3.465.355-1.304 1.305-1.166 3.131.247 4.544 1.395 1.396 3.2 1.573 4.544.229Zm2.772-2.958.901-.901-1.643-1.642v-.898l3.665.518 1.105-1.106-4.643-.641-.111-3.86-1.079 1.078.114 3.803-.078.078-3.501-3.501-.901.901 6.171 6.171Zm6.621-6.434c1.009-1.009 1.226-2.221.678-3.179l-1.007.699c.274.6.106 1.215-.407 1.727-.771.771-1.79.789-2.706-.079l3.291-3.29-.32-.319c-1.672-1.673-3.326-1.326-4.375-.278-1.289 1.29-1.157 3.122.265 4.544 1.438 1.438 3.216 1.54 4.581.175Zm-4.114-1.51c-.62-.693-.714-1.738.019-2.47.699-.699 1.675-.639 2.386.066l-2.405 2.404Zm7.006-1.569.9-.901-2.826-2.826c-.606-.606-.575-1.51.063-2.148.187-.187.431-.365.525-.416l-.862-.862a5.184 5.184 0 0 0-.404.361c-.542.543-.699 1.314-.371 1.98l-.048.048-.735-.735-.871.871 4.629 4.628Zm101.834 55.154 1.923-1.922 5.369 5.369.928-.928-5.369-5.369 1.925-1.926-.801-.801-4.776 4.776.801.801Zm12.546-1.619c1.009-1.01 1.226-2.221.678-3.179l-1.006.699c.274.599.105 1.214-.407 1.726-.772.772-1.79.79-2.706-.078l3.29-3.29-.319-.32c-1.672-1.672-3.327-1.326-4.375-.277-1.29 1.29-1.157 3.122.265 4.544 1.437 1.437 3.215 1.54 4.58.175Zm-4.113-1.51c-.621-.693-.714-1.739.018-2.471.699-.699 1.675-.639 2.386.066l-2.404 2.405Zm6.975-8.536c-.907-.533-1.941-.44-2.941.561-1.046 1.045-1.236 2.338-.416 3.158.657.656 1.492.696 2.552.021l.955-.612c.546-.347.953-.356 1.242-.066.358.358.256 1.021-.335 1.612-.539.539-1.117.654-1.681.307l-.738 1.004c.97.668 2.112.448 3.152-.591 1.118-1.118 1.298-2.486.461-3.324-.654-.654-1.474-.641-2.519.012l-.904.567c-.63.389-1.022.437-1.332.12-.359-.352-.226-.991.286-1.503.56-.561 1.13-.509 1.546-.305l.672-.961Zm2.111-4.371-.949.949-1.109-1.109-.901.901 1.109 1.109-.678.678.723.723.678-.678 2.733 2.733c.838.844 1.887.609 2.583-.117.283-.29.422-.537.488-.681l-.907-.582c-.048.072-.133.211-.277.356-.293.292-.651.458-1.173-.064l-2.546-2.546.949-.949-.723-.723Zm7.943 1.314 3.905-3.906-.801-.801-2.974 2.974-1.89-1.889 2.736-2.736-.798-.799-2.736 2.736-1.88-1.88 2.938-2.938-.802-.802-3.869 3.869 6.171 6.172Zm3.193-8.69c-.738-.738-.708-1.612-.081-2.239.612-.611 1.383-.581 2.055.091l2.836 2.835.901-.901-2.944-2.944c-1.145-1.145-2.375-1.115-3.321-.168-.696.696-.829 1.473-.551 2.178l-.058.057-.753-.753-.865.865 4.629 4.628.901-.901-2.749-2.748Zm6.084-9.844-.967.967 2.392 4.731-.048.048-4.734-2.389-.967.967 6.31 2.947.964-.964-2.95-6.307Zm-319.712-37.98 5.987 1.51 2.423 2.422.928-.928-2.423-2.423-1.509-5.987-1.058 1.058 1.193 4.417-.066.066-4.417-1.193-1.058 1.058Zm12.348-.005-1.067-2.2 2.41-2.411 2.197 1.07.988-.988-8.391-3.951-1.076 1.076 3.95 8.392.989-.988Zm-1.579-3.255-1.724-3.543.048-.048 3.544 1.723-1.868 1.868Zm.828-8.337 6.171 6.172.886-.886-4.469-4.469.057-.057 6.28 2.639.735-.735-2.637-6.276.058-.058 4.465 4.466.886-.886-6.171-6.171-1.13 1.13 2.832 6.762-.072.072-6.762-2.833-1.129 1.13Zm13.786-1.444 3.727-3.727-.801-.802-2.797 2.797-5.369-5.37-.931.931 6.171 6.171Zm67.08-50.653.898-.898c-1.015-.961-2.606-.804-3.86.449-1.238 1.239-1.479 2.896-.416 3.96.859.858 1.977.747 3.236.024l.929-.531c.834-.485 1.56-.777 2.109-.229.602.603.425 1.576-.368 2.369-.717.717-1.633.994-2.359.376l-.934.934c1.178 1.058 2.733.883 4.116-.5 1.449-1.449 1.521-3.046.476-4.092-1.112-1.112-2.534-.551-3.511.039l-.759.446c-.606.359-1.473.775-2.061.181-.524-.524-.434-1.392.325-2.151.709-.708 1.543-.88 2.179-.377Zm8.661.626c1.009-1.009 1.226-2.221.678-3.179l-1.007.699c.275.6.106 1.215-.406 1.727-.772.771-1.79.789-2.706-.079l3.29-3.29-.319-.319c-1.673-1.673-3.327-1.326-4.375-.278-1.29 1.29-1.158 3.122.265 4.544 1.437 1.438 3.215 1.54 4.58.175Zm-4.113-1.51c-.621-.693-.714-1.738.018-2.47.699-.699 1.675-.639 2.386.066l-2.404 2.404Zm7.005-1.569.901-.901-2.827-2.826c-.605-.606-.575-1.51.064-2.148.186-.187.431-.365.524-.416l-.862-.862a5.187 5.187 0 0 0-.404.362c-.542.542-.699 1.313-.37 1.979l-.048.048-.736-.735-.871.871 4.629 4.628Zm2.728-11.985-.967.967 2.393 4.731-.049.048-4.733-2.389-.968.967 6.31 2.947.964-.964-2.95-6.307Zm7.398 2.046c1.009-1.009 1.226-2.221.678-3.179l-1.007.699c.275.6.106 1.215-.406 1.727-.772.771-1.79.789-2.706-.078l3.29-3.291-.319-.319c-1.673-1.673-3.327-1.326-4.375-.278-1.29 1.29-1.158 3.122.265 4.544 1.437 1.438 3.215 1.54 4.58.175Zm-4.113-1.509c-.621-.694-.714-1.739.018-2.471.699-.699 1.675-.639 2.386.066l-2.404 2.405Zm7.005-1.57.901-.901-2.827-2.826c-.605-.606-.575-1.51.064-2.148.186-.187.43-.365.524-.416l-.862-.862a5.187 5.187 0 0 0-.404.362c-.542.542-.699 1.313-.37 1.979l-.049.048-.735-.735-.871.871 4.629 4.628Zm6.535-14.864c-1.53-1.109-3.335-.847-4.64.458-1.597 1.597-1.579 3.972.395 5.945 1.973 1.974 4.342 1.998 5.945.395 1.356-1.356 1.498-3.197.479-4.619l-.943.937c.63.949.401 2.046-.38 2.826-1.057 1.058-2.666 1.046-4.176-.464-1.498-1.497-1.525-3.116-.461-4.18.786-.786 1.889-1.003 2.841-.358l.94-.94Zm7.25 1.266c1.304-1.304 1.202-3.112-.229-4.544-1.441-1.44-3.249-1.542-4.553-.238-1.305 1.305-1.203 3.113.238 4.553 1.431 1.432 3.239 1.534 4.544.23Zm-.754-.759c-.852.853-1.995.506-2.883-.383-.886-.885-1.242-2.037-.389-2.89.847-.846 1.998-.49 2.884.395.888.89 1.235 2.031.388 2.878Zm1.976-6.146c-.738-.738-.708-1.612-.081-2.239.612-.612 1.383-.582 2.055.09l2.835 2.836.901-.901-2.944-2.944c-1.145-1.145-2.374-1.115-3.32-.169-.696.696-.829 1.474-.552 2.179l-.057.057-.753-.753-.865.865 4.628 4.628.901-.901-2.748-2.748Zm4.493-8.254-.997.998-.416-.416c-.41-.41-.464-.801-.024-1.241a1.73 1.73 0 0 1 .473-.335l-.519-.94a3.06 3.06 0 0 0-.876.63c-.733.732-.947 1.802-.079 2.67l.537.536-.715.714.724.723.714-.714 3.905 3.905.904-.904-3.905-3.905.997-.997-.723-.724Zm5.558 3.7.901-.902-4.629-4.628-.9.901 4.628 4.628Zm-4.888-5.798c.311-.31.329-.81.034-1.106-.296-.295-.799-.28-1.109.03-.314.313-.326.814-.03 1.109.295.295.792.28 1.105-.033Zm10.773 3.576c1.179-1.178 1.549-2.628.359-3.818l-4.731-4.73-.883.882.751.75-.067.067c-.446-.127-1.289-.332-2.151.53-1.118 1.118-1.058 2.823.416 4.297 1.476 1.476 3.103 1.422 4.197.328.85-.85.699-1.657.567-2.115l.057-.057.91.91c.726.726.542 1.536-.142 2.22-.75.75-1.419.666-1.844.561l-.455 1.094c.811.322 1.911.187 3.016-.92Zm-2.657-2.64c-.805.805-1.841.606-2.751-.304-.889-.89-1.169-1.989-.356-2.803.787-.786 1.85-.566 2.787.371.956.955 1.097 1.959.32 2.736ZM51.161 307.65c1.88-1.88 1.802-4.134-.127-6.063-1.919-1.919-4.164-1.988-5.98-.171l-2.062 2.061 6.171 6.171 1.998-1.998Zm-1.88.253-4.544-4.544 1.072-1.072c1.35-1.35 2.854-1.239 4.31.216 1.46 1.462 1.584 2.978.177 4.385l-1.015 1.015Zm7.383-5.551c.765-.765.807-1.585.633-2.103l.036-.036.633.632.88-.879-3.074-3.074c-1.347-1.347-2.676-.554-3.41.181-.839.838-1.273 1.946-.73 3.091l1.04-.653c-.196-.461-.175-1.115.43-1.721.582-.582 1.184-.576 1.709-.051l.02.021c.33.328-.014.66-.75 1.588-.774.979-1.443 2.106-.391 3.158.91.91 2.094.726 2.974-.154Zm-.527-.919c-.51.509-1.106.648-1.552.202-.482-.482-.226-1.082.226-1.672.253-.332.868-1.103.868-1.362l.596.596c.549.549.612 1.486-.138 2.236Zm1.44-9.456-.948.949-1.11-1.109-.9.901 1.109 1.109-.678.678.723.723.678-.678 2.733 2.733c.838.844 1.886.609 2.582-.117.283-.29.422-.537.488-.681l-.907-.582c-.048.072-.132.211-.277.356-.292.292-.65.458-1.172-.064l-2.546-2.546.949-.949-.723-.723Zm7.075 2.387c.765-.765.808-1.585.633-2.103l.036-.036.633.632.88-.88-3.074-3.073c-1.347-1.347-2.676-.554-3.41.181-.839.837-1.272 1.946-.73 3.091l1.04-.654c-.196-.461-.175-1.114.43-1.72.582-.582 1.185-.576 1.709-.051l.021.021c.328.328-.015.66-.75 1.588-.775.979-1.444 2.106-.392 3.158.91.91 2.094.726 2.974-.154Zm-.527-.919c-.51.509-1.106.648-1.552.202-.482-.482-.226-1.082.226-1.673.253-.331.868-1.102.868-1.362l.596.597c.549.549.612 1.486-.138 2.236Zm3.981-2.74.88-.88-.72-.72.075-.075c.458.132 1.305.316 2.149-.528 1.12-1.12 1.036-2.832-.462-4.33-1.5-1.5-3.209-1.557-4.327-.439-.858.858-.644 1.693-.518 2.139l-.054.054-2.293-2.293-.901.901 6.171 6.171Zm-1.431-3.197c-.968-.967-1.188-2.031-.401-2.817.817-.817 1.916-.537 2.835.382.928.928 1.215 2.058.41 2.863-.774.774-1.871.545-2.844-.428Zm8.12-3.287c.765-.765.807-1.585.632-2.103l.037-.036.632.633.88-.88-3.073-3.074c-1.347-1.347-2.676-.554-3.411.181-.838.838-1.272 1.947-.73 3.092l1.04-.654c-.196-.461-.175-1.115.431-1.721.581-.581 1.184-.575 1.709-.051l.02.021c.329.329-.014.66-.75 1.588-.774.98-1.443 2.106-.391 3.158.91.91 2.094.726 2.974-.154Zm-.528-.919c-.509.51-1.106.648-1.551.202-.483-.482-.226-1.082.226-1.672.253-.332.867-1.103.867-1.362l.597.597c.548.548.612 1.485-.139 2.235Zm3.88-9.634c-.908-.533-1.941-.44-2.942.561-1.045 1.045-1.235 2.338-.416 3.158.657.657 1.492.696 2.553.021l.955-.612c.545-.346.952-.356 1.241-.066.359.358.256 1.021-.334 1.612-.54.539-1.118.654-1.682.307l-.738 1.004c.97.669 2.112.449 3.152-.591 1.118-1.118 1.299-2.486.461-3.324-.654-.653-1.474-.641-2.52.012l-.903.567c-.63.389-1.022.437-1.332.12-.358-.352-.226-.991.286-1.503.56-.561 1.13-.509 1.546-.304l.672-.962Zm6.667.516c1.01-1.009 1.226-2.22.678-3.179l-1.007.699c.274.6.106 1.215-.407 1.727-.771.771-1.79.789-2.706-.078l3.291-3.291-.32-.319c-1.672-1.673-3.326-1.326-4.375-.277-1.29 1.289-1.157 3.121.266 4.544 1.437 1.437 3.215 1.539 4.58.174Zm-4.113-1.509c-.621-.693-.715-1.739.018-2.471.699-.699 1.675-.639 2.386.066l-2.404 2.405Zm6.975-8.536c-.907-.533-1.941-.44-2.942.56-1.045 1.046-1.235 2.339-.415 3.158.657.657 1.491.696 2.552.021l.955-.611c.546-.347.952-.356 1.242-.067.358.359.256 1.022-.335 1.612-.54.54-1.118.654-1.681.308l-.739 1.003c.97.669 2.113.449 3.152-.59 1.118-1.118 1.299-2.486.461-3.324-.654-.654-1.473-.642-2.519.012l-.904.567c-.63.388-1.021.436-1.332.12-.358-.352-.226-.991.287-1.504.56-.56 1.13-.509 1.546-.304l.671-.961ZM277.163 69.506l3.728-3.728-.802-.801-2.796 2.796-5.37-5.37-.931.932 6.171 6.17Zm6.76-6.574c1.305-1.304 1.203-3.112-.229-4.544-1.44-1.44-3.248-1.542-4.553-.238-1.304 1.305-1.202 3.113.238 4.553 1.432 1.432 3.24 1.534 4.544.23Zm-.753-.759c-.853.853-1.995.506-2.884-.383-.885-.886-1.241-2.037-.388-2.89.846-.846 1.998-.49 2.883.395.889.89 1.236 2.031.389 2.878Zm7.596-2.606c1.178-1.178 1.549-2.627.358-3.817l-4.73-4.731-.883.883.75.75-.066.066c-.446-.126-1.29-.331-2.152.53-1.118 1.119-1.057 2.824.416 4.297 1.477 1.477 3.104 1.423 4.198.329.849-.85.699-1.657.566-2.115l.057-.058.91.91c.726.727.543 1.537-.141 2.221-.751.75-1.42.666-1.844.56l-.455 1.094c.81.323 1.91.187 3.016-.919Zm-2.658-2.64c-.804.805-1.841.606-2.751-.304-.889-.889-1.169-1.988-.356-2.802.787-.786 1.851-.566 2.788.37.955.956 1.097 1.96.319 2.737Zm7.895-2.597c1.178-1.178 1.549-2.627.358-3.817l-4.73-4.731-.883.883.75.75-.066.066c-.446-.126-1.29-.331-2.152.53-1.118 1.118-1.057 2.824.416 4.297 1.477 1.477 3.104 1.423 4.198.329.849-.85.699-1.657.566-2.115l.057-.058.91.91c.726.727.543 1.537-.141 2.221-.751.75-1.42.666-1.844.56l-.455 1.094c.81.323 1.91.187 3.016-.919Zm-2.658-2.64c-.804.805-1.841.606-2.751-.304-.889-.889-1.169-1.988-.356-2.802.787-.786 1.851-.566 2.788.37.955.956 1.097 1.96.319 2.737Zm4.122-2.488.901-.901-4.628-4.629-.901.902 4.628 4.628Zm-4.887-5.798c.31-.31.328-.81.033-1.106-.295-.295-.799-.28-1.109.03-.313.314-.325.814-.03 1.11.295.295.792.28 1.106-.034Zm5.153.036c-.738-.738-.708-1.612-.081-2.24.611-.61 1.383-.58 2.055.091l2.835 2.836.901-.901-2.944-2.944c-1.145-1.145-2.374-1.115-3.32-.169-.696.696-.829 1.474-.552 2.179l-.057.057-.753-.753-.865.865 4.628 4.628.901-.901-2.748-2.748Zm10.691-1.531c1.178-1.178 1.549-2.627.359-3.818l-4.731-4.73-.883.882.75.75-.066.067c-.446-.127-1.29-.332-2.151.53-1.118 1.118-1.058 2.824.415 4.297 1.477 1.477 3.104 1.422 4.198.329.85-.85.699-1.658.566-2.116l.058-.057.91.91c.726.726.542 1.537-.142 2.22-.75.751-1.419.667-1.844.561l-.455 1.094c.81.322 1.91.187 3.016-.919Zm-2.658-2.64c-.804.805-1.841.606-2.751-.304-.889-.889-1.169-1.989-.355-2.802.786-.787 1.85-.567 2.787.37.955.956 1.097 1.959.319 2.736Zm64.358 20.947c-1.53-1.109-3.335-.847-4.64.458-1.597 1.597-1.579 3.971.395 5.945 1.974 1.974 4.342 1.998 5.945.395 1.356-1.356 1.498-3.197.479-4.62l-.943.938c.63.949.401 2.046-.38 2.826-1.057 1.058-2.666 1.046-4.176-.464-1.498-1.498-1.525-3.116-.461-4.18.786-.786 1.889-1.003 2.841-.358l.94-.94Zm7.25 1.266c1.304-1.304 1.202-3.112-.229-4.544-1.441-1.44-3.249-1.543-4.553-.238-1.305 1.305-1.203 3.113.238 4.553 1.431 1.432 3.239 1.534 4.544.23Zm-.754-.76c-.852.854-1.994.507-2.883-.382-.886-.886-1.242-2.037-.389-2.89.847-.846 1.998-.49 2.884.395.888.89 1.235 2.031.388 2.878Zm1.976-6.145c-.738-.739-.708-1.612-.081-2.24.612-.61 1.383-.58 2.055.091l2.835 2.836.901-.901-2.944-2.944c-1.145-1.145-2.374-1.115-3.32-.169-.696.696-.829 1.474-.552 2.179l-.057.057-.753-.753-.865.864 4.628 4.629.901-.901-2.748-2.748Zm4.493-8.254-.997.998-.416-.416c-.41-.41-.464-.802-.024-1.242a1.73 1.73 0 0 1 .473-.334l-.519-.94a3.06 3.06 0 0 0-.876.63c-.733.732-.947 1.802-.079 2.67l.537.536-.715.714.724.723.714-.714 3.905 3.905.904-.904-3.905-3.905.997-.997-.723-.724Zm5.558 3.7.901-.902-4.629-4.628-.9.9 4.628 4.63Zm-4.888-5.798c.311-.31.329-.81.034-1.106-.296-.295-.799-.28-1.109.03-.314.313-.326.814-.03 1.109.295.295.792.28 1.105-.033Zm10.773 3.576c1.179-1.178 1.549-2.628.359-3.818l-4.731-4.73-.883.882.751.75-.067.067c-.446-.127-1.289-.332-2.151.53-1.118 1.118-1.058 2.823.416 4.297 1.476 1.476 3.103 1.422 4.197.328.85-.85.699-1.657.567-2.115l.057-.057.91.91c.726.726.542 1.536-.142 2.22-.75.75-1.419.666-1.844.56l-.455 1.095c.811.322 1.911.187 3.016-.92Zm-2.657-2.64c-.805.805-1.841.606-2.751-.304-.889-.89-1.169-1.989-.356-2.803.787-.786 1.85-.566 2.787.371.956.955 1.097 1.959.32 2.736Zm8.438-6.805c1.88-1.88 1.802-4.134-.127-6.062-1.919-1.92-4.164-1.989-5.981-.172l-2.061 2.061 6.171 6.171 1.998-1.998Zm-1.881.253-4.544-4.543 1.073-1.073c1.35-1.35 2.854-1.239 4.309.217 1.461 1.461 1.585 2.977.178 4.384l-1.016 1.015Zm5.934-4.306.901-.901-2.826-2.826c-.606-.606-.576-1.51.063-2.149.187-.187.431-.365.524-.416l-.861-.862c-.103.079-.29.247-.404.362-.543.542-.699 1.314-.371 1.98l-.048.048-.735-.735-.871.87 4.628 4.629Zm3.257-3.257.901-.9-4.629-4.629-.901.901 4.629 4.628Zm-4.888-5.797c.311-.31.329-.81.033-1.106-.295-.295-.798-.28-1.108.03-.314.314-.326.814-.031 1.109.296.295.793.28 1.106-.033Zm4.575-3.147-.997.998-.416-.416c-.41-.41-.464-.802-.024-1.242.187-.186.361-.277.473-.334l-.518-.94a3.047 3.047 0 0 0-.877.63c-.732.732-.946 1.801-.079 2.67l.537.536-.714.714.723.723.714-.714 3.905 3.905.904-.904-3.905-3.905.997-.998-.723-.723Zm3.09-3.09-.949.95-1.109-1.11-.901.901 1.109 1.11-.678.677.723.724.678-.678 2.733 2.733c.838.843 1.887.608 2.583-.118a2.46 2.46 0 0 0 .488-.681l-.907-.582c-.048.073-.133.211-.277.356-.293.292-.651.458-1.173-.063l-2.546-2.547.949-.949-.723-.723Zm92.523 63.584-.931.931 6.171 6.171.931-.93-6.171-6.172Zm8.049 4.294-1.067-2.2 2.411-2.41 2.196 1.07.988-.99-8.391-3.95-1.076 1.076 3.95 8.392.989-.988Zm-1.579-3.255-1.724-3.543.048-.048 3.544 1.723-1.868 1.868Zm.828-8.336 6.171 6.17.886-.885-4.469-4.469.057-.057 6.28 2.64.735-.736-2.637-6.276.058-.058 4.465 4.466.886-.886-6.171-6.17-1.13 1.13 2.833 6.76-.073.073-6.761-2.832-1.13 1.13ZM507.992 201.9l6.171 6.171.886-.886-4.468-4.469.057-.057 6.279 2.64.736-.736-2.637-6.276.057-.058 4.466 4.466.886-.886-6.171-6.171-1.13 1.13 2.832 6.762-.072.072-6.762-2.832-1.13 1.13Zm13.714-1.372.901-.901-4.628-4.628-.901.901 4.628 4.628Zm-4.887-5.798c.31-.31.328-.81.033-1.105-.295-.296-.799-.281-1.109.03-.313.313-.325.813-.03 1.109.295.295.792.28 1.106-.034Zm10.773 3.576c1.178-1.178 1.549-2.627.358-3.817l-4.73-4.731-.883.883.75.75-.066.066c-.446-.126-1.29-.331-2.152.531-1.118 1.117-1.057 2.823.416 4.296 1.477 1.477 3.104 1.423 4.197.329.85-.85.7-1.657.567-2.115l.057-.058.91.91c.726.727.543 1.537-.141 2.221-.751.75-1.42.666-1.844.561l-.455 1.093c.81.323 1.91.187 3.016-.919Zm-2.658-2.639c-.804.804-1.841.605-2.751-.305-.889-.889-1.169-1.988-.356-2.802.787-.786 1.851-.566 2.788.371.955.955 1.096 1.958.319 2.736Zm4.122-2.489.901-.901-2.826-2.827c-.606-.605-.576-1.509.063-2.148.187-.187.431-.365.524-.416l-.861-.862c-.103.079-.29.247-.404.362-.543.542-.699 1.314-.371 1.98l-.048.048-.735-.735-.871.87 4.628 4.629Zm4.665-4.46c.765-.765.807-1.585.632-2.103l.037-.036.632.633.88-.88-3.073-3.074c-1.347-1.347-2.676-.554-3.411.181-.838.838-1.272 1.947-.729 3.092l1.039-.654c-.196-.461-.175-1.115.431-1.721.582-.581 1.184-.575 1.709-.051l.021.021c.328.328-.015.66-.751 1.588-.774.979-1.443 2.106-.391 3.158.91.91 2.094.726 2.974-.154Zm-.528-.919c-.509.509-1.105.648-1.551.202-.483-.482-.226-1.082.226-1.672.253-.332.867-1.103.867-1.362l.597.596c.548.549.612 1.486-.139 2.236Zm1.441-9.456-.949.949-1.109-1.109-.901.901 1.109 1.109-.678.678.724.723.677-.678 2.734 2.733c.837.844 1.886.609 2.582-.117.283-.29.422-.537.488-.681l-.907-.582c-.048.072-.133.211-.277.356-.292.292-.651.458-1.172-.064l-2.547-2.546.95-.949-.724-.723Zm5.625 3.632.901-.901-4.628-4.629-.901.901 4.628 4.629Zm-4.887-5.798c.31-.31.328-.81.033-1.106-.295-.295-.798-.28-1.109.03-.313.314-.325.814-.03 1.109.295.296.793.28 1.106-.033Zm9.043 1.828c1.305-1.304 1.203-3.112-.229-4.544-1.44-1.44-3.248-1.542-4.553-.238-1.304 1.305-1.202 3.113.238 4.553 1.432 1.432 3.24 1.534 4.544.229Zm-.753-.759c-.853.853-1.995.506-2.884-.383-.885-.886-1.241-2.037-.388-2.889.846-.847 1.998-.492 2.883.394.889.889 1.236 2.031.389 2.878Zm1.976-6.146c-.738-.738-.708-1.612-.081-2.239.611-.612 1.383-.582 2.055.09l2.835 2.836.901-.901-2.944-2.944c-1.145-1.145-2.374-1.115-3.32-.169-.696.696-.829 1.474-.552 2.179l-.057.057-.753-.753-.865.864 4.628 4.629.901-.901-2.748-2.748Zm6.888-8.389c-.907-.533-1.94-.44-2.941.56-1.045 1.046-1.235 2.339-.415 3.158.656.657 1.491.696 2.552.021l.955-.611c.545-.347.952-.356 1.241-.067.359.359.257 1.022-.334 1.612-.539.54-1.118.654-1.681.308l-.739 1.003c.971.669 2.113.449 3.152-.59 1.118-1.118 1.299-2.486.461-3.324-.654-.654-1.473-.642-2.519.012l-.904.567c-.63.388-1.021.436-1.332.12-.358-.352-.226-.991.287-1.504.56-.56 1.13-.509 1.545-.304l.672-.961Zm-210.534-35.376 6.171 6.171.886-.886-4.468-4.469.057-.057 6.279 2.64.736-.736-2.637-6.276.057-.057 4.466 4.465.886-.886-6.171-6.171-1.13 1.13 2.832 6.762-.072.072-6.762-2.832-1.13 1.13Zm15.802-3.273c1.01-1.01 1.227-2.221.678-3.179l-1.006.699c.274.599.105 1.214-.407 1.726-.771.772-1.79.79-2.706-.078l3.291-3.291-.32-.319c-1.672-1.672-3.326-1.326-4.375-.277-1.29 1.289-1.157 3.122.265 4.544 1.438 1.437 3.215 1.54 4.58.175Zm-4.113-1.51c-.62-.693-.714-1.739.018-2.471.699-.699 1.676-.639 2.387.066l-2.405 2.405Zm4.537-8.358-.949.949-1.109-1.109-.901.901 1.109 1.109-.678.678.724.723.677-.678 2.733 2.733c.838.844 1.887.609 2.583-.117.283-.29.422-.537.488-.681l-.907-.582c-.048.073-.133.211-.277.356-.293.292-.651.458-1.172-.064l-2.547-2.546.95-.949-.724-.723Zm5.625 3.632.901-.901-2.826-2.827c-.606-.605-.576-1.509.063-2.148.187-.187.431-.365.525-.416l-.862-.862c-.103.079-.29.247-.404.362-.542.542-.699 1.314-.371 1.979l-.048.049-.735-.736-.871.871 4.628 4.629Zm3.257-3.257.901-.901-4.628-4.628-.901.901 4.628 4.628Zm-4.888-5.797c.311-.311.329-.811.034-1.106-.296-.296-.799-.28-1.109.03-.314.313-.326.813-.03 1.109.295.295.792.28 1.105-.033Zm9.044 1.828c1.094-1.094 1.145-2.459.343-3.459l-.876.877c.385.614.292 1.298-.223 1.814-.763.762-1.89.617-2.899-.392-.991-.992-1.115-2.116-.362-2.869.573-.572 1.284-.56 1.814-.223l.877-.877c-1.03-.837-2.413-.696-3.465.356-1.305 1.305-1.166 3.131.247 4.544 1.395 1.395 3.2 1.573 4.544.229Zm2.741-9.925c-.907-.533-1.94-.44-2.941.56-1.045 1.046-1.235 2.339-.415 3.158.656.657 1.491.696 2.552.021l.955-.611c.545-.347.952-.356 1.241-.067.359.359.257 1.022-.334 1.613-.539.539-1.118.653-1.681.307l-.739 1.003c.971.669 2.113.449 3.152-.59 1.118-1.118 1.299-2.486.461-3.324-.654-.654-1.473-.642-2.519.012l-.904.567c-.63.388-1.021.437-1.332.12-.358-.352-.226-.991.287-1.503.56-.561 1.129-.51 1.545-.305l.672-.961ZM236.979 129.59l.898-.898c-1.015-.961-2.606-.804-3.86.449-1.238 1.238-1.479 2.896-.416 3.959.859.859 1.977.748 3.236.025l.929-.531c.834-.485 1.56-.777 2.109-.229.602.603.425 1.576-.368 2.369-.717.717-1.633.994-2.359.376l-.934.934c1.178 1.058 2.733.883 4.116-.5 1.449-1.449 1.521-3.046.476-4.092-1.112-1.112-2.534-.551-3.511.039l-.759.446c-.606.359-1.473.775-2.061.181-.524-.524-.434-1.392.325-2.151.709-.708 1.543-.88 2.179-.377Zm8.661.626c1.009-1.009 1.226-2.221.678-3.179l-1.007.699c.275.6.106 1.214-.406 1.727-.772.771-1.79.789-2.706-.079l3.29-3.29-.319-.32c-1.673-1.672-3.327-1.325-4.375-.277-1.29 1.29-1.158 3.122.265 4.544 1.437 1.438 3.215 1.54 4.58.175Zm-4.113-1.51c-.621-.693-.714-1.738.018-2.47.699-.7 1.675-.639 2.386.066l-2.404 2.404Zm9.048-3.425c1.094-1.094 1.145-2.459.343-3.459l-.877.877c.386.614.293 1.298-.223 1.814-.762.762-1.889.617-2.898-.392-.992-.991-1.115-2.115-.362-2.869.573-.572 1.284-.56 1.814-.223l.877-.876c-1.031-.838-2.414-.697-3.465.355-1.305 1.305-1.166 3.131.247 4.544 1.395 1.395 3.2 1.573 4.544.229Zm3.784-7.809c.789.783.578 1.741.072 2.247-.557.558-1.347.54-1.977-.09l-2.835-2.835-.901.9 2.944 2.944c1.148 1.148 2.374 1.115 3.263.226.696-.696.802-1.536.521-2.244l.049-.049.801.802.886-.886-4.628-4.628-.904.904 2.709 2.709Zm4.034-.196.901-.901-2.827-2.826c-.605-.606-.575-1.51.063-2.148.187-.187.431-.365.525-.416l-.862-.862a5.187 5.187 0 0 0-.404.362c-.542.542-.699 1.313-.37 1.979l-.049.048-.735-.735-.871.871 4.629 4.628Zm3.256-3.256.901-.901-4.628-4.628-.901.901 4.628 4.628Zm-4.887-5.798c.31-.31.328-.81.033-1.105-.295-.296-.799-.281-1.109.03-.313.313-.325.813-.03 1.109.295.295.792.28 1.106-.034Zm4.532-3.104-.949.949-1.109-1.109-.901.901 1.109 1.109-.678.678.723.723.678-.678 2.733 2.733c.838.844 1.887.609 2.583-.117.283-.289.422-.537.488-.681l-.907-.582c-.048.073-.133.211-.277.356-.293.292-.651.458-1.172-.063l-2.547-2.547.95-.949-.724-.723Zm7.93 4.798c.745-.744.826-1.603.365-2.601l-3.324-7.15-.982.964 2.42 4.764-.048.048-4.764-2.419-.965.964 6.382 2.995.196.419c.386.844.115 1.217-.515 1.576l.521.955c.157-.06.443-.244.714-.515Zm-128.1 114.182c-1.53-1.109-3.335-.846-4.64.458-1.597 1.597-1.579 3.972.395 5.945 1.974 1.974 4.342 1.998 5.945.395 1.356-1.356 1.498-3.197.479-4.619l-.943.937c.63.949.401 2.046-.38 2.826-1.057 1.058-2.666 1.046-4.176-.464-1.498-1.497-1.525-3.115-.461-4.179.786-.786 1.889-1.003 2.841-.359l.94-.94Zm7.25 1.267c1.304-1.305 1.202-3.113-.229-4.544-1.441-1.441-3.249-1.543-4.553-.238-1.305 1.304-1.203 3.112.238 4.553 1.431 1.431 3.239 1.533 4.544.229Zm-.754-.76c-.852.853-1.994.506-2.883-.382-.886-.886-1.242-2.037-.389-2.89.847-.847 1.998-.491 2.884.395.888.889 1.235 2.031.388 2.877Zm1.976-6.146c-.738-.738-.708-1.612-.081-2.239.612-.612 1.383-.581 2.055.091l2.835 2.835.901-.901-2.944-2.944c-1.145-1.145-2.374-1.115-3.32-.169-.696.696-.829 1.474-.552 2.179l-.057.057-.753-.753-.865.865 4.628 4.628.901-.901-2.748-2.748Zm4.451-8.211-.949.949-1.109-1.109-.901.901 1.109 1.109-.678.678.723.723.678-.678 2.733 2.733c.837.844 1.886.609 2.582-.117.283-.29.422-.537.488-.681l-.907-.582c-.048.073-.132.211-.277.356-.292.292-.651.458-1.172-.064l-2.546-2.546.949-.949-.723-.723Zm7.074 2.387c.765-.765.808-1.585.633-2.103l.036-.036.633.633.88-.88-3.074-3.074c-1.347-1.347-2.676-.554-3.411.181-.838.838-1.271 1.947-.729 3.092l1.04-.654c-.196-.461-.175-1.115.43-1.721.582-.581 1.185-.575 1.709-.051l.021.021c.328.328-.015.66-.75 1.588-.775.979-1.444 2.106-.392 3.158.91.91 2.094.726 2.974-.154Zm-.527-.919c-.509.509-1.106.648-1.552.202-.482-.482-.226-1.082.226-1.672.253-.332.868-1.103.868-1.362l.596.596c.549.549.612 1.486-.138 2.236Zm3.909-2.667.901-.901-4.629-4.629-.901.901 4.629 4.629Zm-4.888-5.798c.311-.31.329-.81.033-1.106-.295-.295-.798-.28-1.109.03-.313.314-.325.814-.03 1.109.296.296.793.281 1.106-.033Zm5.154.036c-.739-.739-.709-1.612-.082-2.239.612-.612 1.383-.582 2.055.09l2.836 2.836.901-.901-2.944-2.944c-1.145-1.145-2.375-1.115-3.321-.169-.696.696-.828 1.473-.551 2.179l-.058.057-.753-.754-.865.865 4.629 4.629.901-.901-2.748-2.748Zm9.006-3.324c1.01-1.009 1.227-2.221.678-3.179l-1.006.699c.274.6.105 1.214-.407 1.727-.771.771-1.79.789-2.706-.079l3.291-3.29-.32-.32c-1.672-1.672-3.327-1.325-4.375-.277-1.29 1.29-1.157 3.122.265 4.544 1.437 1.438 3.215 1.54 4.58.175Zm-4.113-1.51c-.621-.693-.714-1.738.018-2.47.699-.7 1.676-.639 2.387.066l-2.405 2.404Zm7.005-1.569.901-.901-2.826-2.826c-.606-.606-.576-1.51.063-2.149.187-.186.431-.364.524-.415l-.862-.862a5.18 5.18 0 0 0-.403.361c-.543.543-.699 1.314-.371 1.98l-.048.048-.735-.735-.871.871 4.628 4.628Zm3.257-3.256.901-.901-4.629-4.629-.901.901 4.629 4.629Zm-4.888-5.798c.311-.31.329-.81.033-1.106-.295-.295-.798-.28-1.109.03-.313.314-.325.814-.03 1.109.296.296.793.281 1.106-.033Zm6.904 3.781 3.716-3.715-.784-.784-2.495 2.495-.042-.042-.735-5.556-.657-.657-3.55 3.549.784.784 2.425-2.426.043.042.678 5.692.617.618Zm6.228-6.023c.765-.765.807-1.585.633-2.103l.036-.036.633.633.879-.88-3.073-3.074c-1.347-1.347-2.676-.554-3.411.181-.838.838-1.272 1.947-.729 3.092l1.039-.654c-.195-.461-.174-1.115.431-1.721.582-.581 1.184-.575 1.709-.051l.021.021c.328.329-.015.66-.75 1.588-.775.979-1.444 2.106-.392 3.158.91.91 2.094.726 2.974-.154Zm-.527-.919c-.51.51-1.106.648-1.552.202-.482-.482-.226-1.082.226-1.672.253-.332.868-1.103.868-1.362l.596.596c.549.549.612 1.486-.138 2.236Zm1.441-9.456-.949.949-1.109-1.109-.901.901 1.109 1.109-.678.678.723.723.678-.678 2.733 2.733c.837.844 1.886.609 2.582-.117.283-.289.422-.537.488-.681l-.907-.582c-.048.073-.132.211-.277.356-.292.292-.651.458-1.172-.063l-2.546-2.547.949-.949-.723-.723Zm5.625 3.632.901-.901-4.629-4.629-.901.901 4.629 4.629Zm-4.888-5.798c.311-.31.329-.81.033-1.106-.295-.295-.798-.28-1.109.031-.313.313-.325.813-.03 1.108.296.296.793.281 1.106-.033Zm9.044 1.829c1.304-1.305 1.202-3.113-.229-4.544-1.441-1.441-3.249-1.543-4.553-.239-1.305 1.305-1.203 3.113.238 4.554 1.431 1.431 3.239 1.533 4.544.229Zm-.754-.76c-.852.853-1.994.506-2.883-.383-.886-.885-1.242-2.036-.389-2.889.847-.847 1.998-.491 2.884.395.889.888 1.235 2.03.388 2.877Zm1.976-6.146c-.738-.738-.708-1.612-.081-2.239.612-.612 1.383-.581 2.055.09l2.835 2.836.901-.901-2.944-2.944c-1.145-1.145-2.374-1.115-3.32-.169-.696.696-.829 1.474-.552 2.179l-.057.057-.753-.753-.865.865 4.628 4.628.901-.901-2.748-2.748Zm82.076 92.074c1.88-1.881 1.802-4.135-.127-6.063-1.919-1.92-4.164-1.989-5.981-.172l-2.061 2.061 6.171 6.171 1.998-1.997Zm-1.88.253-4.544-4.544 1.073-1.073c1.349-1.35 2.853-1.238 4.308.217 1.462 1.461 1.585 2.977.178 4.384l-1.015 1.016Zm4.816-15.531-.922.922 4.532 4.532-.058.057-7.671-1.392-.862.862 6.171 6.171.931-.931-4.526-4.526.057-.058 7.663 1.39.856-.856-6.171-6.171Zm6.345-3.103.898-.898c-1.016-.961-2.607-.805-3.86.449-1.239 1.238-1.48 2.896-.416 3.959.859.859 1.977.747 3.236.024l.928-.53c.835-.485 1.561-.777 2.11-.229.602.603.424 1.576-.368 2.368-.717.718-1.633.995-2.359.377l-.935.934c1.179 1.058 2.733.883 4.117-.5 1.449-1.449 1.521-3.046.476-4.092-1.112-1.112-2.535-.551-3.511.039l-.759.446c-.606.359-1.474.774-2.061.181-.524-.524-.434-1.392.325-2.152.708-.708 1.543-.879 2.179-.376Zm171.537 16.927.898-.898c-1.015-.961-2.606-.804-3.86.449-1.238 1.238-1.479 2.896-.416 3.959.859.859 1.977.748 3.236.025l.929-.531c.834-.485 1.56-.777 2.109-.229.602.603.425 1.576-.368 2.369-.717.717-1.633.994-2.359.376l-.934.934c1.178 1.058 2.733.883 4.116-.5 1.449-1.449 1.521-3.046.476-4.092-1.112-1.112-2.534-.551-3.511.039l-.759.446c-.606.359-1.473.775-2.061.181-.524-.524-.434-1.392.325-2.151.709-.708 1.543-.88 2.179-.377Zm8.616.671c1.093-1.094 1.145-2.459.343-3.459l-.877.877c.386.615.293 1.299-.223 1.814-.762.762-1.889.618-2.898-.392-.992-.991-1.115-2.115-.362-2.868.573-.573 1.284-.561 1.814-.223l.877-.877c-1.031-.838-2.414-.696-3.465.355-1.305 1.305-1.167 3.131.247 4.544 1.395 1.395 3.2 1.573 4.544.229Zm4.22-4.203c.766-.765.808-1.584.633-2.103l.036-.036.633.633.88-.88-3.073-3.074c-1.347-1.346-2.676-.554-3.411.181-.838.838-1.272 1.947-.73 3.092l1.04-.654c-.196-.461-.175-1.115.431-1.721.581-.581 1.184-.575 1.708-.051l.021.021c.329.329-.015.66-.75 1.588-.774.98-1.443 2.107-.392 3.158.91.91 2.095.726 2.974-.154Zm-.527-.919c-.509.51-1.106.648-1.552.202-.482-.482-.226-1.081.226-1.672.253-.331.868-1.103.868-1.362l.597.597c.548.548.611 1.485-.139 2.235Zm-1.361-9.739-.901.901 6.171 6.171.901-.901-6.171-6.171Zm7.383 4.959.901-.901-4.628-4.628-.901.901 4.628 4.628Zm-4.887-5.798c.31-.31.328-.81.033-1.105-.296-.296-.799-.281-1.109.03-.313.313-.326.813-.03 1.109.295.295.792.28 1.106-.034Zm5.153.036c-.738-.738-.708-1.612-.081-2.239.611-.612 1.383-.582 2.055.09l2.835 2.836.901-.901-2.944-2.944c-1.145-1.145-2.374-1.115-3.32-.169-.696.696-.829 1.474-.552 2.179l-.057.057-.753-.753-.865.865 4.628 4.628.901-.901-2.748-2.748Zm10.691-1.531c1.178-1.178 1.549-2.627.359-3.818l-4.731-4.73-.883.882.75.751-.066.066c-.446-.126-1.29-.331-2.152.53-1.117 1.118-1.057 2.824.416 4.297 1.477 1.477 3.104 1.423 4.198.329.849-.85.699-1.658.566-2.116l.057-.057.91.91c.727.726.543 1.537-.141 2.221-.75.75-1.419.666-1.844.56l-.455 1.094c.81.323 1.91.187 3.016-.919Zm-2.658-2.639c-.804.804-1.841.605-2.751-.305-.889-.889-1.169-1.989-.355-2.802.786-.787 1.85-.567 2.787.371.955.955 1.097 1.958.319 2.736Zm-128.446-60.235.931-.931-1.919-1.919-.109-1.567 4.752.762 1.121-1.121-5.891-.895-.289-5.267-1.172 1.172.359 5.535-.076.076-2.947-2.947-.931.931 6.171 6.171Zm7.72-7.551c1.284-1.284 1.462-2.92.467-3.926-.783-.772-1.982-.88-2.796-.314l-.036-.036c.455-.744.298-1.714-.362-2.386-.949-.938-2.483-.808-3.613.322-1.142 1.142-1.271 2.676-.322 3.613.657.669 1.63.829 2.386.361l.037.037c-.579.825-.471 2.025.313 2.796.994 1.006 2.63.829 3.926-.467Zm-.762-.762c-.772.771-1.67.849-2.281.226-.648-.636-.576-1.625.153-2.354.718-.717 1.706-.789 2.354-.153.612.623.536 1.518-.226 2.281Zm-2.872-2.872c-.624.624-1.461.672-2.043.078-.584-.572-.539-1.383.1-2.022.626-.626 1.437-.672 2.022-.099.581.594.536 1.428-.079 2.043Z" fill="#F66"/></g><defs><linearGradient id="zemh8nn48b" x1="454" y1="142" x2="614" y2="494" gradientUnits="userSpaceOnUse"><stop stop-color="#13111C"/><stop offset="1" stop-color="#400000"/></linearGradient><linearGradient id="9esu50xs6c" x1="293.391" y1="136" x2="379" y2="136" gradientUnits="userSpaceOnUse"><stop stop-color="#A61111"/><stop offset="1" stop-color="#656565"/></linearGradient><linearGradient id="23x54a549d" x1="95.783" y1="72" x2="95.783" y2="320" gradientUnits="userSpaceOnUse"><stop offset=".516" stop-color="#676767"/><stop offset="1" stop-color="#A61111"/></linearGradient><linearGradient id="n6rf6d9gge" x1="235" y1="302" x2="51" y2="302" gradientUnits="userSpaceOnUse"><stop offset=".516" stop-color="#666"/><stop offset="1" stop-color="#A61111"/></linearGradient><linearGradient id="mu4kj6padf" x1="334.261" y1="144" x2="451" y2="144" gradientUnits="userSpaceOnUse"><stop stop-color="#A61111"/><stop offset="1" stop-color="#666"/></linearGradient><linearGradient id="nsr9omhpzg" x1="353.304" y1="32" x2="579" y2="32" gradientUnits="userSpaceOnUse"><stop stop-color="#A61111"/><stop offset=".474" stop-color="#666"/></linearGradient><linearGradient id="nocpmwe9vh" x1="168" y1="144" x2="243" y2="240" gradientUnits="userSpaceOnUse"><stop offset=".516" stop-color="#656565"/><stop offset="1" stop-color="#A61111"/></linearGradient><linearGradient id="ck40xlxw3i" x1="191.065" y1="-8" x2="623" y2="-8" gradientUnits="userSpaceOnUse"><stop stop-color="#656565"/><stop offset=".573" stop-color="#A61111"/></linearGradient><linearGradient id="5t7mdo0wvj" x1="0" y1="32" x2="179" y2="32" gradientUnits="userSpaceOnUse"><stop stop-color="#A61111"/><stop offset=".531" stop-color="#676767"/></linearGradient><clipPath id="8k8eft42ea"><rect width="620" height="320" rx="8" fill="#fff"/></clipPath></defs></svg>